name C:\Users\u0101727\Documents\MyRepositories\upper-imu-dc\Results\main_tracking\Case_87\kinematics.mot
datacolumns 43
datarows 9
range 6.26000000 6.42000000
endheader 
time	clav_prot	clav_elev	scapula_abduction	scapula_elevation	scapula_upward_rot	scapula_winging	plane_elv	shoulder_elv	axial_rot	TrapeziusScapula_M/activation	TrapeziusScapula_S/activation	TrapeziusScapula_I/activation	TrapeziusClavicle_S/activation	SerratusAnterior_I/activation	SerratusAnterior_M/activation	SerratusAnterior_S/activation	Rhomboideus_S/activation	Rhomboideus_I/activation	LevatorScapulae/activation	Coracobrachialis/activation	DeltoideusClavicle_A/activation	DeltoideusScapula_P/activation	DeltoideusScapula_M/activation	LatissimusDorsi_S/activation	LatissimusDorsi_M/activation	LatissimusDorsi_I/activation	PectoralisMajorClavicle_S/activation	PectoralisMajorThorax_I/activation	PectoralisMajorThorax_M/activation	TeresMajor/activation	Infraspinatus_I/activation	Infraspinatus_S/activation	PectoralisMinor/activation	TeresMinor/activation	Subscapularis_S/activation	Subscapularis_M/activation	Subscapularis_I/activation	Supraspinatus_P/activation	Supraspinatus_A/activation	TRIlong/activation	BIC_long/activation	BIC_brevis/activation	
          6.26000000	        -49.99999886	          4.76919610	        -23.01273972	         -6.23255412	         62.68040882	        -15.94054146	         45.82103052	         93.72984520	        -10.85860414	          0.01000015	          0.04960645	          0.01000012	          0.02357000	          0.03687512	          0.10889785	          0.01000019	          0.01000008	          0.01000004	          0.01000011	          0.02933197	          0.09373251	          0.01000001	          0.08292453	          0.01000001	          0.01000000	          0.01000000	          0.02945279	          0.01000001	          0.01387339	          0.01000002	          0.04141347	          0.02510732	          0.01000003	          0.01000011	          0.01000015	          0.01000006	          0.01000002	          0.02313731	          0.02698099	          0.01000001	          0.01709359	          0.04155105	
          6.28000000	        -49.99999944	          4.75968883	        -22.86584524	         -6.23878527	         62.87610241	        -15.93600331	         46.28319554	         94.04307950	        -11.09409054	          0.01000016	          0.04963205	          0.01000012	          0.02322270	          0.03690401	          0.10860708	          0.01000015	          0.01000007	          0.01000004	          0.01000010	          0.02842054	          0.09268973	          0.01000001	          0.08220462	          0.01000001	          0.01000000	          0.01000000	          0.02879393	          0.01000001	          0.01320497	          0.01000002	          0.04237087	          0.02531813	          0.01000003	          0.01000011	          0.01000014	          0.01000006	          0.01000002	          0.02271013	          0.02621294	          0.01000001	          0.01623446	          0.04064649	
          6.30000000	        -49.99999688	          4.75491073	        -22.72538068	         -6.24161648	         63.06479024	        -15.93331141	         46.75982126	         94.35477686	        -11.32276301	          0.01000017	          0.04962399	          0.01000013	          0.02277445	          0.03713954	          0.10808507	          0.01000013	          0.01000007	          0.01000004	          0.01000009	          0.02728880	          0.09132819	          0.01000002	          0.08139359	          0.01000001	          0.01000000	          0.01000000	          0.02789226	          0.01000001	          0.01232285	          0.01000002	          0.04339234	          0.02557704	          0.01000003	          0.01000012	          0.01000013	          0.01000006	          0.01000002	          0.02219871	          0.02533232	          0.01000001	          0.01530015	          0.03943503	
          6.32000000	        -49.99999680	          4.75445331	        -22.59020341	         -6.24134144	         63.24787827	        -15.93231155	         47.24765127	         94.66527237	        -11.54089787	          0.01000020	          0.04955466	          0.01000013	          0.02221609	          0.03752404	          0.10737516	          0.01000011	          0.01000007	          0.01000004	          0.01000008	          0.02595916	          0.08968877	          0.01000002	          0.08048868	          0.01000001	          0.01000000	          0.01000000	          0.02676688	          0.01000001	          0.01123291	          0.01000002	          0.04447468	          0.02586538	          0.01000003	          0.01000013	          0.01000013	          0.01000006	          0.01000002	          0.02160491	          0.02435237	          0.01000001	          0.01431249	          0.03793558	
          6.34000000	        -49.99999387	          4.75760879	        -22.45904880	         -6.23845057	         63.42681106	        -15.93269846	         47.74227987	         94.97468030	        -11.74561772	          0.01000023	          0.04944093	          0.01000013	          0.02157318	          0.03805072	          0.10648648	          0.01000010	          0.01000007	          0.01000003	          0.01000007	          0.02444958	          0.08775421	          0.01000002	          0.07947659	          0.01000001	          0.01000000	          0.01000000	          0.02542810	          0.01000001	          0.01010224	          0.01000002	          0.04564463	          0.02620273	          0.01000003	          0.01000015	          0.01000012	          0.01000006	          0.01000002	          0.02093034	          0.02327936	          0.01000001	          0.01328180	          0.03615808	
          6.36000000	        -49.99999456	          4.76327221	        -22.33051435	         -6.23369870	         63.60310266	        -15.93398947	         48.23833123	         95.28282139	        -11.93506447	          0.01000031	          0.04953306	          0.01000014	          0.02081473	          0.03880014	          0.10537802	          0.01000009	          0.01000006	          0.01000003	          0.01000007	          0.02263811	          0.08543228	          0.01000002	          0.07827825	          0.01000001	          0.01000000	          0.01000000	          0.02365867	          0.01000001	          0.01000141	          0.01000003	          0.04705943	          0.02659278	          0.01000003	          0.01000018	          0.01000011	          0.01000006	          0.01000002	          0.02015643	          0.02211223	          0.01000001	          0.01217313	          0.03391802	
          6.38000000	        -49.99999156	          4.77003027	        -22.20300123	         -6.22804275	         63.77839773	        -15.93554604	         48.72951150	         95.58910149	        -12.10884985	          0.01000046	          0.04954340	          0.01000015	          0.02001016	          0.03957896	          0.10415685	          0.01000007	          0.01000006	          0.01000003	          0.01000006	          0.02071770	          0.08288779	          0.01000003	          0.07691597	          0.01000001	          0.01000000	          0.01000000	          0.02174143	          0.01000001	          0.01000069	          0.01000003	          0.04857036	          0.02698598	          0.01000003	          0.01000023	          0.01000010	          0.01000005	          0.01000002	          0.01930439	          0.02088132	          0.01000001	          0.01106028	          0.03145863	
          6.40000000	        -49.99999058	          4.77610953	        -22.07477466	         -6.22267821	         63.95442368	        -15.93657083	         49.20894474	         95.89253015	        -12.26797194	          0.01000065	          0.04939957	          0.01000016	          0.01922119	          0.04029620	          0.10290272	          0.01000007	          0.01000006	          0.01000003	          0.01000005	          0.01876583	          0.08025782	          0.01000003	          0.07542506	          0.01000001	          0.01000000	          0.01000000	          0.01975846	          0.01000001	          0.01000036	          0.01000003	          0.05014598	          0.02725415	          0.01000003	          0.01000039	          0.01000010	          0.01000005	          0.01000002	          0.01842602	          0.01967388	          0.01000001	          0.01010775	          0.02888203	
          6.42000000	        -49.99999068	          4.77935666	        -21.94413485	         -6.21905340	         64.13271371	        -15.93608794	         49.66979315	         96.19203330	        -12.41459682	          0.01000094	          0.04907884	          0.01000016	          0.01848150	          0.04087105	          0.10173383	          0.01000006	          0.01000005	          0.01000003	          0.01000005	          0.01693162	          0.07765968	          0.01000004	          0.07377140	          0.01000001	          0.01000000	          0.01000000	          0.01784865	          0.01000001	          0.01000023	          0.01000003	          0.05183022	          0.02736039	          0.01000003	          0.01000083	          0.01000009	          0.01000005	          0.01000002	          0.01754048	          0.01853524	          0.01000001	          0.01000238	          0.02633221	
